<?xml version="1.0" encoding="UTF-8" standalone="no"?>
<!-- Created with Inkscape (http://www.inkscape.org/) -->

<svg
   version="1.1"
   id="svg2"
   xml:space="preserve"
   width="793.70667"
   height="1122.52"
   viewBox="0 0 793.70667 1122.52"
   sodipodi:docname="Indosluch Logo.svg"
   inkscape:version="1.1 (c4e8f9e, 2021-05-24)"
   xmlns:inkscape="http://www.inkscape.org/namespaces/inkscape"
   xmlns:sodipodi="http://sodipodi.sourceforge.net/DTD/sodipodi-0.dtd"
   xmlns:xlink="http://www.w3.org/1999/xlink"
   xmlns="http://www.w3.org/2000/svg"
   xmlns:svg="http://www.w3.org/2000/svg"><defs
     id="defs6"><linearGradient
       inkscape:collect="always"
       id="linearGradient1540"><stop
         style="stop-color:#ff00ff;stop-opacity:1;"
         offset="0"
         id="stop1536" /><stop
         style="stop-color:#00ff1b;stop-opacity:1"
         offset="1"
         id="stop1538" /></linearGradient><linearGradient
       inkscape:collect="always"
       id="linearGradient1374"><stop
         style="stop-color:#ff00ff;stop-opacity:1;"
         offset="0"
         id="stop1370" /><stop
         style="stop-color:#ff00ff;stop-opacity:0;"
         offset="1"
         id="stop1372" /></linearGradient><clipPath
       clipPathUnits="userSpaceOnUse"
       id="clipPath16"><path
         d="M 0,841.89 H 595.28 V 0 H 0 Z"
         id="path14" /></clipPath><linearGradient
       inkscape:collect="always"
       xlink:href="#linearGradient1374"
       id="linearGradient1378"
       x1="208.9147"
       y1="631.98541"
       x2="397.73581"
       y2="631.98541"
       gradientUnits="userSpaceOnUse" /><linearGradient
       inkscape:collect="always"
       xlink:href="#linearGradient1540"
       id="linearGradient1401"
       x1="-61.953728"
       y1="-2.0033236"
       x2="102.04096"
       y2="19.963572"
       gradientUnits="userSpaceOnUse" /><linearGradient
       inkscape:collect="always"
       xlink:href="#linearGradient1374"
       id="linearGradient1698"
       gradientUnits="userSpaceOnUse"
       x1="208.9147"
       y1="631.98541"
       x2="397.73581"
       y2="631.98541" /><linearGradient
       inkscape:collect="always"
       xlink:href="#linearGradient1374"
       id="linearGradient1700"
       gradientUnits="userSpaceOnUse"
       x1="208.9147"
       y1="631.98541"
       x2="397.73581"
       y2="631.98541" /><linearGradient
       inkscape:collect="always"
       xlink:href="#linearGradient1374"
       id="linearGradient1702"
       gradientUnits="userSpaceOnUse"
       x1="208.9147"
       y1="631.98541"
       x2="397.73581"
       y2="631.98541" /><linearGradient
       inkscape:collect="always"
       xlink:href="#linearGradient1374"
       id="linearGradient1704"
       gradientUnits="userSpaceOnUse"
       x1="208.9147"
       y1="631.98541"
       x2="397.73581"
       y2="631.98541" /><linearGradient
       inkscape:collect="always"
       xlink:href="#linearGradient1374"
       id="linearGradient1706"
       gradientUnits="userSpaceOnUse"
       x1="208.9147"
       y1="631.98541"
       x2="397.73581"
       y2="631.98541" /><linearGradient
       inkscape:collect="always"
       xlink:href="#linearGradient1374"
       id="linearGradient1708"
       gradientUnits="userSpaceOnUse"
       x1="208.9147"
       y1="631.98541"
       x2="397.73581"
       y2="631.98541" /><linearGradient
       inkscape:collect="always"
       xlink:href="#linearGradient1374"
       id="linearGradient1710"
       gradientUnits="userSpaceOnUse"
       x1="208.9147"
       y1="631.98541"
       x2="397.73581"
       y2="631.98541" /><linearGradient
       inkscape:collect="always"
       xlink:href="#linearGradient1374"
       id="linearGradient1712"
       gradientUnits="userSpaceOnUse"
       x1="208.9147"
       y1="631.98541"
       x2="397.73581"
       y2="631.98541" /><linearGradient
       inkscape:collect="always"
       xlink:href="#linearGradient1374"
       id="linearGradient1714"
       gradientUnits="userSpaceOnUse"
       x1="208.9147"
       y1="631.98541"
       x2="397.73581"
       y2="631.98541" /><filter
       inkscape:collect="always"
       style="color-interpolation-filters:sRGB"
       id="filter2375"
       x="-0.050144653"
       y="-0.069947161"
       width="1.0943254"
       height="1.141992"><feGaussianBlur
         inkscape:collect="always"
         stdDeviation="2.7029365"
         id="feGaussianBlur2377" /></filter></defs><sodipodi:namedview
     id="namedview4"
     pagecolor="#ffffff"
     bordercolor="#666666"
     borderopacity="1.0"
     inkscape:pageshadow="2"
     inkscape:pageopacity="0.0"
     inkscape:pagecheckerboard="0"
     showgrid="false"
     inkscape:snap-global="false"
     inkscape:zoom="1.5037594"
     inkscape:cx="496.42251"
     inkscape:cy="242.3925"
     inkscape:window-width="1864"
     inkscape:window-height="1016"
     inkscape:window-x="56"
     inkscape:window-y="27"
     inkscape:window-maximized="1"
     inkscape:current-layer="g1005" /><g
     id="g8"
     inkscape:groupmode="layer"
     inkscape:label="Indosluch Logo"
     transform="matrix(1.3333333,0,0,-1.3333333,0,1122.52)"><g
       id="g10"><g
         id="g12"
         clip-path="url(#clipPath16)"><g
           id="g1005"
           transform="translate(27.903727,29.41043)"><path
             d="m 365.81876,682.94332 3.24,7.629 -0.209,-6.674 z m -2.812,-0.886 -1.941,-0.612 0.274,2.212 z m -42.874,-4.543 8.404,19.341 -1.609,-20.056 z m 69.957,19.729 0.257,32.518 -10.692,-38.358 -6.631,21.674 -9.982,-13.417 -4.177,5.282 -6.524,-10.415 1.686,29.706 -10.764,-26.019 -5.735,3.273 -0.44,-4.278 c -0.413,2.537 -5.389,25.499 -5.389,25.499 l -3.162,-19.315 -4.481,-0.75 5.2,20.744 -19.924,-26.829 -9.111,-2.392 5.34,9.459 -7.038,-1.848 13.737,29.805 -32.855,-36.665 -7.622,19.415 -9.807,-24.47 -16.458,26.226 -2.244,-18.098 -2.716,25.362 -6.732,-24.63 -4.609,4.593 -1.024,-6.596 -6.903,16.853 -2.233,-13.002 -4.192,-3.417 1.988,34.192 -21.169,-62.687 9.009,5.789 0.279,-39.866 11.165,44.68 -2.796,-37.248 11.384,30.045 9.948,-32.767 3.814,42.593 2.569,-1.788 -3.857,-31.114 21.907,27.274 4.338,-9.944 3.086,2.224 6.553,-11.605 12.295,22.691 2.875,0.755 -19.718,-56.205 42.418,64.885 0.291,0.037 -14.479,-29.856 31.056,10.69 17.248,-10.584 1.402,15.721 10.071,-14.034 12.09,15.88 -1.005,-32.085 12.083,27.937 7.614,-37.226 7.299,64.572 z"
             style="fill:#3c3c3c;fill-opacity:1;fill-rule:nonzero;stroke:#00ff1b;stroke-opacity:1;stroke-width:3.75000009;stroke-miterlimit:4;stroke-dasharray:none;filter:url(#filter2375)"
             id="path2355" /><path
             d="m 365.81876,682.94332 3.24,7.629 -0.209,-6.674 z m -2.812,-0.886 -1.941,-0.612 0.274,2.212 z m -42.874,-4.543 8.404,19.341 -1.609,-20.056 z m 69.957,19.729 0.257,32.518 -10.692,-38.358 -6.631,21.674 -9.982,-13.417 -4.177,5.282 -6.524,-10.415 1.686,29.706 -10.764,-26.019 -5.735,3.273 -0.44,-4.278 c -0.413,2.537 -5.389,25.499 -5.389,25.499 l -3.162,-19.315 -4.481,-0.75 5.2,20.744 -19.924,-26.829 -9.111,-2.392 5.34,9.459 -7.038,-1.848 13.737,29.805 -32.855,-36.665 -7.622,19.415 -9.807,-24.47 -16.458,26.226 -2.244,-18.098 -2.716,25.362 -6.732,-24.63 -4.609,4.593 -1.024,-6.596 -6.903,16.853 -2.233,-13.002 -4.192,-3.417 1.988,34.192 -21.169,-62.687 9.009,5.789 0.279,-39.866 11.165,44.68 -2.796,-37.248 11.384,30.045 9.948,-32.767 3.814,42.593 2.569,-1.788 -3.857,-31.114 21.907,27.274 4.338,-9.944 3.086,2.224 6.553,-11.605 12.295,22.691 2.875,0.755 -19.718,-56.205 42.418,64.885 0.291,0.037 -14.479,-29.856 31.056,10.69 17.248,-10.584 1.402,15.721 10.071,-14.034 12.09,15.88 -1.005,-32.085 12.083,27.937 7.614,-37.226 7.299,64.572 z"
             style="fill:#000000;fill-opacity:1;fill-rule:nonzero;stroke:none"
             id="path52" /><g
             id="g1043"
             style="fill:url(#linearGradient1378);fill-opacity:1"
             transform="translate(-7.1230393,51.887525)"><g
               id="g54"
               transform="translate(224.3677,643.3466)"
               style="fill:url(#linearGradient1698);fill-opacity:1" /><g
               id="g58"
               transform="translate(223.3125,604.326)"
               style="fill:url(#linearGradient1700);fill-opacity:1" /><g
               id="g62"
               transform="translate(288.2046,639.9374)"
               style="fill:url(#linearGradient1702);fill-opacity:1" /><g
               id="g66"
               transform="translate(318.3311,641.1263)"
               style="fill:url(#linearGradient1704);fill-opacity:1" /><g
               id="g70"
               transform="translate(339.6201,654.0101)"
               style="fill:url(#linearGradient1706);fill-opacity:1" /><g
               id="g74"
               transform="translate(366.3105,648.1703)"
               style="fill:url(#linearGradient1708);fill-opacity:1" /><g
               id="g78"
               transform="translate(379.9268,654.0101)"
               style="fill:url(#linearGradient1710);fill-opacity:1" /><g
               id="g82"
               transform="translate(256.3789,647.495)"
               style="fill:url(#linearGradient1712);fill-opacity:1" /><g
               id="g86"
               transform="translate(279.0005,622.7362)"
               style="fill:url(#linearGradient1714);fill-opacity:1"><path
                 id="path88"
                 style="fill:url(#linearGradient1401);fill-opacity:1;fill-rule:nonzero;stroke:none"
                 d="M 0,0 -3.045,5.531 0,26.517 2.896,4.711 Z m -0.17,32.289 -10.52,-26.417 3.647,-8.361 2.761,1.99 5.44,-9.636 8.613,15.896 z m -22.4516,-7.5302 5.261,-11.947 -6.119,-4.906 z m -1.718,7.067 -5.521,-44.535 18.134,24.473 z m 125.2659,-0.5519 -1.354,-43.214 7.082,16.371 h 3.408 l 4.593,-25.654 4.08,41.08 -3.834,-2.424 0.109,13.841 -4.658,-20.299 h -4.267 z M 87.31,25.4341 75.174,6.0591 l 9.58,-13.351 10.083,13.245 -9.515,-2.997 1.704,13.755 4.687,-4.495 8.095,19.058 -8.663,-10.688 z m -26.6904,5.8398 -2.613,-32.594 12.403,-7.612 2.086,23.38 4.204,-2.459 1.096,19.285 -4.792,-11.582 -4.598,2.624 c 0,0 -2.499,-24.259 -2.499,-23.906 0,0.352 -5.287,32.864 -5.287,32.864 m -21.289,-12.8838 5.641,0.897 -13.685,-28.219 24.709,8.505 -12.513,1.317 10.792,24.837 -6.909,-1.171 5.369,14.931 z m -30.1265,-1.1889 8.261,1.997 -7.591,-10.978 11.646,3.057 -12.824,-36.555 29.248,44.74 -16.249,-4.265 5.34,9.459 -6.889,-1.808 11.416,20.928 z m -64.8921,-35.6114 8.569,27.842 8.166,-26.899 2.815,31.431 5.774,-4.019 -2.355,21.984 -3.644,-13.335 -3.828,3.815 -1.464,-12.289 -7.746,20.068 z m 1.0552,39.0206 -6.069,-4.536 1.007,17.331 -10.391,-30.77 6.458,4.15 -1.207,-28.008 z" /></g></g><text
             xml:space="preserve"
             style="font-size:33.1574px;line-height:1.25;font-family:'Neutra Text';-inkscape-font-specification:'Neutra Text';letter-spacing:0px;word-spacing:0px;stroke-width:2.07234"
             x="305.81223"
             y="-623.42523"
             id="text4498"
             transform="scale(1,-1)"><tspan
               sodipodi:role="line"
               id="tspan4496"
               style="font-style:normal;font-variant:normal;font-weight:normal;font-stretch:normal;font-family:MrRobot;-inkscape-font-specification:MrRobot;stroke-width:2.07234"
               x="305.81223"
               y="-623.42523">EM</tspan></text></g><g
           id="g22"
           transform="translate(419.70307,68.651869)"><path
             d="m 0,0 h -233.263 c -14.928,0 -27.03,12.103 -27.03,27.03 v 431.856 c 0,14.928 12.102,27.03 27.03,27.03 H 0 c 14.929,0 27.03,-12.102 27.03,-27.03 V 27.03 C 27.03,12.103 14.929,0 0,0 Z"
             style="fill:none;stroke:#000000;stroke-width:3;stroke-linecap:butt;stroke-linejoin:miter;stroke-miterlimit:10;stroke-dasharray:none;stroke-opacity:1"
             id="path24" /></g><g
           id="g26"
           transform="translate(268.0654,519.8221)"><path
             d="m 0,0 c 0,-8.054 -6.529,-14.583 -14.583,-14.583 -8.054,0 -14.584,6.529 -14.584,14.583 0,8.054 6.53,14.583 14.584,14.583 C -6.529,14.583 0,8.054 0,0"
             style="fill:#ffffff;fill-opacity:1;fill-rule:nonzero;stroke:none"
             id="path28" /></g><g
           id="g30"
           transform="translate(268.0654,519.8221)"><path
             d="m 0,0 c 0,-8.054 -6.529,-14.583 -14.583,-14.583 -8.054,0 -14.584,6.529 -14.584,14.583 0,8.054 6.53,14.583 14.584,14.583 C -6.529,14.583 0,8.054 0,0 Z"
             style="fill:none;stroke:#000000;stroke-width:3;stroke-linecap:butt;stroke-linejoin:miter;stroke-miterlimit:10;stroke-dasharray:none;stroke-opacity:1"
             id="path32" /></g><g
           id="g34"
           transform="translate(356.3809,519.8221)"><path
             d="m 0,0 c 0,-8.054 -6.529,-14.583 -14.583,-14.583 -8.054,0 -14.583,6.529 -14.583,14.583 0,8.054 6.529,14.583 14.583,14.583 C -6.529,14.583 0,8.054 0,0"
             style="fill:#ffffff;fill-opacity:1;fill-rule:nonzero;stroke:none"
             id="path36" /></g><g
           id="g38"
           transform="translate(356.3809,519.8221)"><path
             d="m 0,0 c 0,-8.054 -6.529,-14.583 -14.583,-14.583 -8.054,0 -14.583,6.529 -14.583,14.583 0,8.054 6.529,14.583 14.583,14.583 C -6.529,14.583 0,8.054 0,0 Z"
             style="fill:none;stroke:#000000;stroke-width:3;stroke-linecap:butt;stroke-linejoin:miter;stroke-miterlimit:10;stroke-dasharray:none;stroke-opacity:1"
             id="path40" /></g><g
           id="g42"
           transform="translate(314.0742,430.6732)"><path
             d="m 0,0 c 0,-9.077 -7.357,-16.435 -16.434,-16.435 -9.077,0 -16.434,7.358 -16.434,16.435 0,9.076 7.357,16.434 16.434,16.434 C -7.357,16.434 0,9.076 0,0"
             style="fill:#ffffff;fill-opacity:1;fill-rule:nonzero;stroke:none"
             id="path44" /></g><g
           id="g46"
           transform="translate(314.0742,430.6732)"><path
             d="m 0,0 c 0,-9.077 -7.357,-16.435 -16.434,-16.435 -9.077,0 -16.434,7.358 -16.434,16.435 0,9.076 7.357,16.434 16.434,16.434 C -7.357,16.434 0,9.076 0,0 Z"
             style="fill:none;stroke:#000000;stroke-width:3;stroke-linecap:butt;stroke-linejoin:miter;stroke-miterlimit:10;stroke-dasharray:none;stroke-opacity:1"
             id="path48" /></g></g></g></g></svg>
